<svg width="1890" height="720" xmlns="http://www.w3.org/2000/svg" xmlns:xlink="http://www.w3.org/1999/xlink" overflow="hidden"><defs><clipPath id="clip0"><rect x="0" y="0" width="1890" height="720"/></clipPath></defs><g clip-path="url(#clip0)"><rect x="0" y="0" width="1890" height="719.936" fill="#FFFFFF"/><rect x="645" y="311.973" width="235" height="95.9915" fill="#BDD7EE"/><text font-family="SimHei,SimHei_MSFontService,sans-serif" font-weight="400" font-size="43" transform="matrix(1 0 0 0.999912 655.969 376)">文献</text><text font-family="SimHei,SimHei_MSFontService,sans-serif" font-weight="400" font-size="43" transform="matrix(1 0 0 0.999912 740.977 376)">数据库</text><rect x="981" y="90.992" width="270" height="116.99" fill="#C5E0B4"/><text font-family="SimHei,SimHei_MSFontService,sans-serif" font-weight="400" font-size="43" transform="matrix(1 0 0 0.999912 1031.01 168)">基础模型</text><rect x="981" y="511.955" width="270" height="116.99" fill="#FFE699"/><text font-family="SimHei,SimHei_MSFontService,sans-serif" font-weight="400" font-size="43" transform="matrix(1 0 0 0.999912 1009.76 589)">个性化模型</text><path d="M0-8 170.812-8 170.812 178.461 154.812 178.461 154.812 0 162.812 8 0 8ZM186.812 170.461 162.812 218.461 138.812 170.461Z" fill="#FF0000" transform="matrix(1.83713e-16 1 1.00009 -1.83697e-16 762 407.964)"/><rect x="1386" y="91.9919" width="227" height="117.99" fill="#DBDBDB"/><text font-family="SimHei,SimHei_MSFontService,sans-serif" font-weight="400" font-size="43" transform="matrix(1 0 0 0.999912 1414.19 169)">文献分类</text><rect x="1391" y="511.955" width="222" height="116.99" fill="#DBDBDB"/><text font-family="SimHei,SimHei_MSFontService,sans-serif" font-weight="400" font-size="43" transform="matrix(1 0 0 0.999912 1416.51 563)">个人文献</text><text font-family="SimHei,SimHei_MSFontService,sans-serif" font-weight="400" font-size="43" transform="matrix(1 0 0 0.999912 1416.51 614)">推荐系统</text><path d="M753.999 311.751 753.999 140.987 940.477 140.987 940.477 156.987 762 156.987 770.001 148.987 770.001 311.751ZM932.476 124.987 980.481 148.987 932.476 172.987Z" fill="#FF0000"/><text font-family="SimHei,SimHei_MSFontService,sans-serif" font-weight="400" font-size="32" transform="matrix(1 0 0 0.999912 1222.53 313)">由传统的科研人员</text><text font-family="SimHei,SimHei_MSFontService,sans-serif" font-weight="400" font-size="32" transform="matrix(1 0 0 0.999912 1222.53 351)">查找文献转变为</text><text font-family="SimHei,SimHei_MSFontService,sans-serif" font-weight="400" font-size="32" transform="matrix(1 0 0 0.999912 1222.53 390)">文献自动推荐给</text><text font-family="SimHei,SimHei_MSFontService,sans-serif" font-weight="400" font-size="32" transform="matrix(1 0 0 0.999912 1222.53 428)">科研人员</text><path d="M1124 207.982 1124 471.552 1108 471.552 1108 207.982ZM1140 463.552 1116 511.552 1092 463.552Z" fill="#FF0000"/><text font-family="SimHei,SimHei_MSFontService,sans-serif" font-weight="400" font-size="38" transform="matrix(1 0 0 0.999912 1024.75 368)">微调</text><path d="M1251.09 140.987 1345.79 142.01 1345.62 158.009 1250.91 156.986ZM1337.97 125.925 1385.71 150.442 1337.45 173.922Z" fill="#FF0000"/><path d="M1508 209.92 1510.01 472.037 1494.01 472.16 1492 210.043ZM1525.95 463.914 1502.32 512.097 1477.95 464.283Z" fill="#FF0000"/><path d="M1251 562.95 1350.35 562.95 1350.35 578.95 1251 578.95ZM1342.35 546.95 1390.35 570.95 1342.35 594.95Z" fill="#FF0000"/><text font-family="SimHei,SimHei_MSFontService,sans-serif" font-weight="400" font-size="37" transform="matrix(1 0 0 0.999912 1657.46 161)">人找文献</text><text font-family="SimHei,SimHei_MSFontService,sans-serif" font-weight="400" font-size="37" transform="matrix(1 0 0 0.999912 1657.46 587)">文献找人</text><path d="M1727 492.457 1737.75 492.457 1737.75 188.983 1759.25 188.983 1759.25 492.457 1770 492.457 1748.5 513.955Z" fill="#FF0000" fill-rule="evenodd"/><rect x="106" y="172.985" width="310" height="74.9934" fill="#C9C9C9"/><text font-family="Arial,Arial_MSFontService,sans-serif" font-weight="400" font-size="43" transform="matrix(1 0 0 0.999912 135.841 227)">arXiv</text><text font-family="SimHei,SimHei_MSFontService,sans-serif" font-weight="400" font-size="43" transform="matrix(1 0 0 0.999912 232.849 227)">论文</text><text font-family="Arial,Arial_MSFontService,sans-serif" font-weight="400" font-size="43" transform="matrix(1 0 0 0.999912 317.857 227)">API</text><rect x="106" y="321.972" width="310" height="75.9933" fill="#C9C9C9"/><text font-family="SimHei,SimHei_MSFontService,sans-serif" font-weight="400" font-size="43" transform="matrix(1 0 0 0.999912 120.589 376)">欧洲专利局</text><text font-family="Arial,Arial_MSFontService,sans-serif" font-weight="400" font-size="43" transform="matrix(1 0 0 0.999912 333.108 376)">API</text><rect x="106" y="461.959" width="310" height="108.99" fill="#C9C9C9"/><text font-family="SimHei,SimHei_MSFontService,sans-serif" font-weight="400" font-size="43" transform="matrix(1 0 0 0.999912 176.094 507)">各大期刊</text><text font-family="Arial,Arial_MSFontService,sans-serif" font-weight="400" font-size="43" transform="matrix(1 0 0 0.999912 174.927 558)">RSS</text><text font-family="SimHei,SimHei_MSFontService,sans-serif" font-weight="400" font-size="43" transform="matrix(1 0 0 0.999912 262.268 558)">订阅</text><path d="M416 206.981 534.432 206.981 534.432 360.304 530.432 356.304 624.861 356.304 624.861 364.304 526.431 364.304 526.431 210.981 530.432 214.981 416 214.981ZM620.861 348.304 644.863 360.304 620.861 372.304Z" fill="#FF0000"/><path d="M0-4 118.421-4 118.421 0.000104987 114.421-3.99989 208.843-3.99989 208.843 4.0001 110.421 4.0001 110.421 0 114.421 4 0 4ZM204.843-11.9999 228.843 0.000104987 204.843 12.0001Z" fill="#FF0000" transform="matrix(1.00009 0 0 -1 416 359.968)"/><path d="M0-4 118.421-4 118.421 156.138 114.421 152.138 208.843 152.138 208.843 160.138 110.421 160.138 110.421 0 114.421 4 0 4ZM204.843 144.138 228.843 156.138 204.843 168.138Z" fill="#FF0000" transform="matrix(1.00009 0 0 -1 416 516.106)"/><text font-family="SimHei,SimHei_MSFontService,sans-serif" font-weight="400" font-size="38" transform="matrix(1 0 0 0.999912 174.901 103)">定期运行</text></g></svg>